<svg width="18" height="18" viewBox="0 0 18 18" fill="none" xmlns="http://www.w3.org/2000/svg">
<g id="keyboard_tab_black_18dp 1">
<path id="Vector" d="M9.2175 6.09L11.3775 8.25H1.5C1.0875 8.25 0.75 8.5875 0.75 9C0.75 9.4125 1.0875 9.75 1.5 9.75H11.3775L9.2175 11.91C8.925 12.2025 8.925 12.675 9.2175 12.9675C9.51 13.26 9.9825 13.26 10.275 12.9675L13.7175 9.525C14.01 9.2325 14.01 8.76 13.7175 8.4675L10.275 5.025C9.9825 4.7325 9.51 4.7325 9.2175 5.025C8.9325 5.3175 8.925 5.7975 9.2175 6.09ZM15 5.25V12.75C15 13.1625 15.3375 13.5 15.75 13.5C16.1625 13.5 16.5 13.1625 16.5 12.75V5.25C16.5 4.8375 16.1625 4.5 15.75 4.5C15.3375 4.5 15 4.8375 15 5.25Z" fill="#0B0F14"/>
</g>
</svg>
